<?xml version="1.0" standalone="no"?>
<!DOCTYPE svg PUBLIC "-//W3C//DTD SVG 20010904//EN"
 "http://www.w3.org/TR/2001/REC-SVG-20010904/DTD/svg10.dtd">
<svg version="1.0" xmlns="http://www.w3.org/2000/svg"
 width="250.000000pt" height="100.000000pt" viewBox="0 0 250.000000 100.000000"
 preserveAspectRatio="xMidYMid meet">

<g transform="translate(0.000000,100.000000) scale(0.100000,-0.100000)"
fill="#000000" stroke="none">
<path d="M242 838 c-54 -26 -37 -98 29 -120 23 -8 47 -22 53 -31 24 -39 -37
-72 -85 -47 -14 8 -25 8 -31 2 -15 -15 31 -42 73 -42 49 0 80 26 81 68 1 40
-9 51 -64 72 -51 19 -68 42 -48 65 9 11 23 15 39 12 56 -12 64 -12 68 -1 4 13
-40 34 -70 33 -12 0 -32 -5 -45 -11z"/>
<path d="M410 725 c0 -118 1 -125 20 -125 18 0 20 7 20 55 l0 55 70 0 70 0 0
-55 c0 -42 3 -55 15 -55 13 0 15 21 15 125 0 104 -2 125 -15 125 -12 0 -15
-13 -15 -55 l0 -55 -70 0 -70 0 0 55 c0 48 -2 55 -20 55 -19 0 -20 -7 -20
-125z"/>
<path d="M750 843 c-31 -11 -70 -58 -76 -91 -16 -86 40 -152 129 -152 81 0
136 72 117 155 -10 42 -24 61 -61 81 -28 14 -80 17 -109 7z m111 -52 c33 -33
38 -75 14 -120 -16 -33 -33 -41 -81 -41 -51 0 -84 36 -84 93 0 45 12 67 45 85
36 20 75 14 106 -17z"/>
<path d="M950 839 c0 -7 17 -64 37 -126 47 -143 60 -147 98 -30 15 45 31 88
35 96 5 9 19 -21 40 -83 44 -134 55 -131 106 29 37 116 39 126 21 123 -14 -2
-25 -22 -44 -83 -13 -44 -27 -87 -30 -95 -3 -8 -19 27 -37 80 -21 59 -38 96
-48 98 -11 2 -24 -22 -48 -93 -18 -52 -35 -93 -37 -91 -3 2 -17 44 -32 93 -19
61 -32 89 -44 91 -9 2 -17 -2 -17 -9z"/>
<path d="M1350 725 c0 -104 2 -125 15 -125 11 0 15 12 15 50 0 45 2 50 23 50
15 0 32 -15 56 -50 21 -30 42 -50 53 -50 21 0 17 12 -26 69 l-25 34 25 24 c20
18 25 31 22 60 -4 46 -31 63 -105 63 l-53 0 0 -125z m114 89 c36 -35 7 -84
-50 -84 l-34 0 0 50 0 50 34 0 c19 0 42 -7 50 -16z"/>
<path d="M1612 830 c-70 -43 -78 -136 -17 -197 29 -29 40 -33 84 -33 44 0 56
5 87 33 114 104 -22 277 -154 197z m111 -22 c35 -18 46 -40 47 -86 0 -58 -33
-92 -88 -92 -51 0 -81 25 -89 72 -13 86 58 145 130 106z"/>
<path d="M1900 828 c-100 -68 -54 -228 65 -228 58 0 91 16 116 57 30 49 22
115 -19 156 -42 42 -112 49 -162 15z m142 -38 c11 -14 18 -39 18 -67 0 -57
-33 -93 -84 -93 -48 0 -65 8 -81 41 -24 46 -19 87 15 121 27 27 36 30 73 25
26 -4 48 -14 59 -27z"/>
<path d="M2140 725 c0 -104 2 -125 15 -125 12 0 15 17 15 96 0 57 4 93 9 89 6
-3 27 -37 48 -75 21 -40 44 -70 53 -70 8 0 33 33 57 78 l43 77 0 -97 c0 -80 3
-98 15 -98 13 0 15 21 15 126 0 114 -2 125 -17 122 -10 -2 -38 -39 -63 -86
-25 -45 -47 -82 -50 -82 -3 0 -27 39 -53 85 -35 61 -54 85 -68 85 -18 0 -19
-8 -19 -125z"/>
<path d="M470 425 c-17 -21 -4 -48 20 -42 28 7 27 -29 -1 -38 -11 -4 -18 -9
-15 -12 3 -3 17 2 31 11 17 11 25 26 25 44 0 46 -35 68 -60 37z"/>
<path d="M359 423 c0 -5 0 -34 1 -67 1 -50 -1 -58 -15 -52 -15 5 -15 4 0 -16
17 -26 21 -129 5 -159 -13 -24 -52 -25 -73 -1 -28 31 -26 133 3 162 19 19 19
20 2 20 -10 0 -29 -12 -43 -26 -19 -21 -24 -36 -24 -81 0 -48 4 -58 29 -79 22
-19 38 -24 75 -23 87 3 81 -9 81 170 0 152 -1 159 -20 159 -11 0 -20 -3 -21
-7z"/>
<path d="M1150 420 c-24 -8 -24 -8 -2 -9 22 -1 22 -2 22 -150 0 -134 -2 -150
-17 -154 -10 -3 7 -5 37 -5 30 0 47 2 37 5 -16 4 -17 15 -15 90 2 69 6 88 21
97 12 8 22 8 35 0 14 -9 18 -28 20 -97 2 -75 1 -86 -15 -90 -10 -3 7 -5 37 -5
30 0 49 2 43 5 -9 3 -13 28 -13 76 0 94 -14 121 -63 125 -21 2 -45 -2 -53 -9
-12 -10 -14 -1 -14 60 0 77 -2 79 -60 61z"/>
<path d="M1410 401 c0 -11 4 -22 8 -25 14 -9 35 12 29 28 -9 23 -37 20 -37 -3z"/>
<path d="M1550 336 c-8 -10 -23 -22 -35 -26 -17 -7 -17 -9 -2 -9 15 -1 17 -12
17 -89 0 -55 4 -92 12 -100 17 -17 60 -15 84 4 18 14 18 15 -4 4 -41 -20 -52
1 -52 96 l0 83 33 4 32 4 -32 1 c-24 2 -32 7 -35 24 -3 20 -4 20 -18 4z"/>
<path d="M2110 336 c-8 -10 -23 -22 -35 -26 -17 -7 -17 -9 -2 -9 15 -1 17 -12
17 -89 0 -55 4 -92 12 -100 17 -17 60 -15 84 4 18 14 18 15 -4 4 -41 -20 -52
1 -52 96 l0 83 33 4 32 4 -32 1 c-24 2 -32 7 -35 24 -3 20 -4 20 -18 4z"/>
<path d="M597 292 c-21 -23 -22 -51 -1 -59 23 -9 40 13 24 32 -10 12 -10 18 0
30 18 22 -4 19 -23 -3z"/>
<path d="M668 302 c7 -5 15 -25 19 -45 5 -30 2 -38 -13 -43 -57 -17 -84 -35
-90 -59 -11 -46 37 -71 86 -45 10 6 21 6 24 1 3 -4 47 -8 98 -8 51 -1 85 1 76
4 -15 4 -18 17 -18 87 0 50 5 87 12 94 18 18 30 14 23 -8 -4 -14 -1 -22 10
-26 22 -9 38 10 30 35 -7 23 -49 30 -61 10 -5 -8 -8 -8 -13 0 -5 8 -19 9 -47
2 -21 -5 -31 -9 -21 -10 15 -1 17 -12 17 -91 l0 -90 -32 4 -33 3 -5 87 c-5 90
-13 106 -55 106 -14 0 -16 -3 -7 -8z m22 -131 c0 -27 -21 -61 -39 -61 -12 0
-31 23 -31 39 0 21 30 51 52 51 13 0 18 -7 18 -29z"/>
<path d="M979 281 c-63 -64 -22 -181 64 -181 20 0 45 8 58 20 l24 20 -32 -16
c-41 -19 -69 -11 -88 26 -24 46 -19 107 10 135 18 18 20 25 9 25 -9 0 -29 -13
-45 -29z"/>
<path d="M1077 298 c4 -7 8 -22 8 -33 0 -13 7 -20 19 -20 28 0 31 20 7 44 -23
23 -47 29 -34 9z"/>
<path d="M1405 300 c-16 -4 -22 -8 -12 -9 15 -1 17 -12 17 -90 0 -77 -2 -90
-17 -94 -10 -3 7 -5 37 -5 30 0 47 2 38 5 -16 4 -18 18 -18 104 0 54 -3 98 -7
98 -5 -1 -21 -5 -38 -9z"/>
<path d="M1697 299 c-22 -13 -47 -68 -47 -105 0 -39 59 -94 102 -94 34 0 78
23 78 41 0 5 -9 0 -20 -11 -44 -44 -110 -3 -110 70 l0 40 64 0 c36 0 68 4 71
10 8 14 -40 60 -62 60 -17 -1 -17 -1 0 -11 9 -5 17 -19 17 -29 0 -17 -7 -20
-45 -20 -49 0 -55 10 -25 40 22 22 8 27 -23 9z"/>
<path d="M1899 281 c-63 -64 -22 -181 64 -181 20 0 45 8 58 20 l24 20 -32 -16
c-18 -8 -42 -13 -53 -9 -53 17 -66 139 -20 177 18 15 19 18 5 18 -9 0 -30 -13
-46 -29z"/>
<path d="M1997 298 c4 -7 8 -22 8 -33 0 -25 33 -32 42 -9 4 11 -1 23 -16 36
-26 21 -46 24 -34 6z"/>
<path d="M2257 299 c-22 -13 -47 -68 -47 -105 0 -40 59 -94 103 -94 31 0 95
36 83 47 -2 3 -14 -5 -25 -16 -28 -28 -56 -26 -86 4 -18 18 -25 35 -25 65 l0
40 64 0 c36 0 68 4 71 10 8 14 -40 60 -62 60 -17 -1 -17 -1 0 -11 9 -5 17 -19
17 -29 0 -17 -7 -20 -45 -20 -49 0 -55 10 -25 40 22 22 8 27 -23 9z"/>
</g>
</svg>
